<?xml version="1.0" standalone="no"?>
<!DOCTYPE svg PUBLIC "-//W3C//DTD SVG 20010904//EN"
 "http://www.w3.org/TR/2001/REC-SVG-20010904/DTD/svg10.dtd">
<svg version="1.0" xmlns="http://www.w3.org/2000/svg"
 width="150.000000pt" height="150.000000pt" viewBox="0 0 150.000000 150.000000"
 preserveAspectRatio="xMidYMid meet">
<metadata>
Created by potrace 1.14, written by Peter Selinger 2001-2017
</metadata>
<g transform="translate(0.000000,150.000000) scale(0.100000,-0.100000)"
fill="#000000" stroke="none">
<path d="M614 1199 c-89 -26 -117 -136 -43 -174 69 -36 176 -6 197 55 29 81
-57 147 -154 119z"/>
<path d="M910 1203 c-89 -17 -127 -129 -58 -177 26 -19 109 -21 141 -5 46 24
67 52 67 89 0 47 -22 77 -68 90 -38 10 -41 10 -82 3z"/>
<path d="M690 996 c-123 -27 -209 -96 -267 -214 -37 -73 -38 -80 -38 -181 0
-95 3 -112 28 -166 37 -79 88 -130 155 -155 49 -19 55 -19 83 -4 29 15 31 18
25 57 -17 110 -18 323 -2 396 21 99 68 196 117 243 l40 38 -43 -1 c-24 0 -68
-6 -98 -13z"/>
<path d="M827 984 c-27 -14 -28 -19 -23 -57 3 -23 8 -101 12 -172 11 -211 -30
-362 -124 -457 l-46 -48 41 0 c113 0 215 41 291 117 175 174 153 506 -40 600
-64 31 -80 34 -111 17z"/>
</g>
</svg>
